<?xml version="1.0" encoding="utf-8"?>
<!-- Generator: Adobe Illustrator 28.1.0, SVG Export Plug-In . SVG Version: 6.00 Build 0)  -->
<svg version="1.1" id="Layer_1" xmlns="http://www.w3.org/2000/svg" xmlns:xlink="http://www.w3.org/1999/xlink" x="0px" y="0px"
	 viewBox="0 0 614.8 155.6" style="enable-background:new 0 0 614.8 155.6;" xml:space="preserve">
<style type="text/css">
	.st0{fill:url(#SVGID_1_);}
	.st1{fill:url(#SVGID_00000016059340360477278220000010830909633977075894_);}
</style>
<g>
	<linearGradient id="SVGID_1_" gradientUnits="userSpaceOnUse" x1="4.6626" y1="41.786" x2="610.1161" y2="41.786">
		<stop  offset="0" style="stop-color:#63327C"/>
		<stop  offset="1" style="stop-color:#273061"/>
	</linearGradient>
	<path class="st0" d="M309.7,77h16.9V9.1h-16.9V77z M14.8,13.7c-4.9,3.8-7.3,9.1-7.3,15.7c0,4.4,1.2,8.1,3.6,10.9
		c2.4,2.9,5.3,5.1,8.7,6.4c3.5,1.4,7,2.5,10.4,3.4c3.5,0.9,6.5,2,8.9,3.1c2.6,1.2,3.9,2.8,3.9,4.8c0,4.2-3.3,6.3-9.9,6.3
		c-6.9,0-11.5-2.9-13.7-8.7L4.7,63.9C9.7,74.4,19.3,79.7,33,79.7c7.8,0,14.3-1.9,19.5-5.6c5.1-3.7,7.7-9.1,7.7-16
		c0-4.6-1.2-8.4-3.6-11.4c-2.4-3-5.3-5.2-8.7-6.5c-3.5-1.3-7-2.4-10.4-3.3c-3.5-0.9-6.5-1.9-8.9-3C26,32.6,24.7,31,24.7,29
		c0-1.9,0.8-3.4,2.4-4.5c1.6-1,3.6-1.6,5.9-1.6c5.1,0,8.9,2.3,11.2,6.9L58.7,22c-2.6-4.4-6.1-7.9-10.5-10.3C43.7,9.2,38.6,8,33.1,8
		C25.8,8,19.7,9.9,14.8,13.7 M413.7,7.5v14.6h20.4V77h17.3V22.1h20.4V7.5H413.7z M564.4,7.5V77h45.7V62.3h-28.4V7.5H564.4z
		 M242.7,17.5c-6.8,6.8-10.3,15.4-10.3,25.5c0,10.1,3.5,18.7,10.3,25.5c6.8,6.9,15.4,10.3,25.6,10.3c6.6,0,12.7-1.6,18.1-4.8
		c5.3-3.1,9.5-7.3,12.4-12.5l-14.7-8.4c-1.4,2.7-3.5,4.9-6.2,6.5c-2.8,1.6-6.1,2.5-9.8,2.5c-5.4,0-9.9-1.8-13.5-5.4
		c-3.5-3.6-5.3-8.2-5.3-13.7c0-5.6,1.8-10.2,5.3-13.8c3.5-3.6,8.1-5.4,13.5-5.4c3.5,0,6.8,0.9,9.6,2.5c2.7,1.6,4.8,3.8,6.2,6.5
		l14.5-8.5c-2.8-5.2-6.9-9.3-12.2-12.4c-5.4-3.2-11.5-4.8-18.1-4.8C258.1,7.1,249.5,10.6,242.7,17.5 M357.5,36.5
		c1-4.5,3.2-8,6.3-10.5c3.2-2.5,7.2-3.7,12.1-3.7c4.1,0,7.8,1.2,11,3.5c3.2,2.3,5.4,5.9,6.4,10.7l0.1,0.5h-36.1L357.5,36.5z
		 M350.1,17.4C343.4,24.2,340,32.8,340,43c0,10.3,3.4,18.9,10.2,25.7c6.8,6.8,15.9,10.2,27.1,10.2c12.8,0,22.7-4.8,29.4-14.2
		l-13.6-7.8c-3.5,4.5-8.8,6.7-15.5,6.7c-10.7,0-17.3-4.4-19.8-13.2l-0.1-0.5h52c0.4-2.4,0.6-4.7,0.6-6.9c0-10.1-3.3-18.7-9.7-25.6
		c-6.4-6.8-14.7-10.3-24.6-10.3C365.4,7.1,356.8,10.6,350.1,17.4 M498.5,57.2c-3.6-3.7-5.5-8.5-5.5-14.2c0-5.8,1.8-10.6,5.5-14.2
		c3.6-3.7,8.3-5.5,13.9-5.5c5.6,0,10.3,1.9,14,5.5c3.7,3.7,5.5,8.5,5.5,14.2c0,5.8-1.9,10.6-5.5,14.2c-3.7,3.7-8.4,5.5-14,5.5
		C506.8,62.8,502.1,60.9,498.5,57.2 M485.8,17.5c-6.4,6.9-9.7,15.5-9.7,25.5c0,10,3.3,18.6,9.7,25.5c6.4,6.9,14.3,10.4,23.3,10.4
		c9.4,0,16.9-3.3,22.1-9.9l0.7-0.9V77h16.9V9.1h-16.9v8.9l-0.7-0.9c-5.2-6.6-12.6-9.9-22.1-9.9C500.1,7.1,492.3,10.6,485.8,17.5
		 M87.8,28.4C74.2,42,66.2,58.4,64,77.1h19.5c2.1-13.5,8-25.4,17.8-35.3c12.4-12.6,27.9-18.9,46.1-18.9c18.3,0,33.8,6.4,46.1,18.9
		c9.8,10,15.8,21.8,17.8,35.3h19.5c-2.2-18.7-10.1-35-23.7-48.7C191,12.1,170.9,3.9,147.4,3.9S103.9,12.1,87.8,28.4"/>
	
		<linearGradient id="SVGID_00000104687067840717766500000016214465335520961195_" gradientUnits="userSpaceOnUse" x1="5.2059" y1="123.8862" x2="408.5142" y2="123.8862">
		<stop  offset="0" style="stop-color:#63327C"/>
		<stop  offset="1" style="stop-color:#273061"/>
	</linearGradient>
	<path style="fill:url(#SVGID_00000104687067840717766500000016214465335520961195_);" d="M35.3,107.7v43.4H21.5v-43.4H5.2V96.5
		h46.6v11.2H35.3z M95.7,151.1v-21.2H73.1v21.2H59.2V96.6h13.9V119h22.6V96.6h13.9v54.5H95.7z M122,151.1V96.6h13.9v54.5H122z
		 M186.3,151.1l-25.1-33.6v33.6h-13V96.6h12.2l25.1,33.6V96.6h12.9v54.5H186.3z M232.1,129.6l-7.2,8v13.4H211V96.6h13.9v23.6
		l20.9-23.6h16l-20.2,22.6l21.6,31.9h-16.6L232.1,129.6z M270.7,151.1V96.6h13.9v54.5H270.7z M335.1,151.1L310,117.5v33.6h-13V96.6
		h12.2l25.1,33.6V96.6h12.9v54.5H335.1z M408,123.3v21.3c-5.8,4.1-15,7.1-22.7,7.1c-16.6,0-29.1-12-29.1-27.9
		c0-15.8,12.8-27.7,30-27.7c8.1,0,16.7,3.1,22.3,8.1l-7.8,9.4c-4-3.7-9.5-5.9-14.6-5.9c-9,0-15.8,7-15.8,16.1
		c0,9.3,6.9,16.3,16,16.3c2.8,0,6.4-1,9.7-2.6v-14.1H408z"/>
</g>
</svg>
